<svg xmlns="http://www.w3.org/2000/svg" width="100%" height="100%" viewBox="0 0 24 24"><defs><style type="text/css" data-svg="css">.purple {
  --svgColor: #6936aa;
}

.f-50 {
  fill: rgb(105, 54, 170);
  fill-opacity: 0.5;
}

.s-md {
  stroke: rgb(105, 54, 170);
  stroke-width: 1px;
}
</style></defs><path class="purple f-50 s-md" d="M11.020833333333332 1.5500000000000007C11.641666666666666 1.2625000000000006 12.358333333333334 1.2625000000000006 12.979166666666666 1.5500000000000007L22.0875 5.758333333333334C22.441666666666666 5.920833333333334 22.666666666666664 6.275 22.666666666666664 6.666666666666667S22.441666666666666 7.4125000000000005 22.0875 7.575000000000001L12.979166666666666 11.783333333333333C12.358333333333334 12.070833333333333 11.641666666666666 12.070833333333333 11.020833333333332 11.783333333333333L1.9124999999999999 7.575000000000001C1.5583333333333331 7.408333333333334 1.3333333333333333 7.054166666666667 1.3333333333333333 6.666666666666667S1.5583333333333331 5.920833333333333 1.9124999999999999 5.758333333333334L11.020833333333332 1.5500000000000007zM19.87083333333333 10.066666666666666L22.0875 11.091666666666667C22.441666666666666 11.254166666666666 22.666666666666664 11.608333333333333 22.666666666666664 12S22.441666666666666 12.745833333333332 22.0875 12.908333333333333L12.979166666666666 17.116666666666667C12.358333333333334 17.40416666666667 11.641666666666666 17.40416666666667 11.020833333333332 17.116666666666667L1.9124999999999999 12.908333333333333C1.5583333333333331 12.741666666666667 1.3333333333333333 12.387500000000001 1.3333333333333333 12S1.5583333333333331 11.254166666666666 1.9124999999999999 11.091666666666667L4.129166666666666 10.066666666666666L10.462499999999999 12.991666666666667C11.4375 13.441666666666668 12.5625 13.441666666666668 13.537499999999998 12.991666666666667L19.87083333333333 10.066666666666668zM13.537499999999998 18.324999999999996L19.87083333333333 15.399999999999999L22.0875 16.424999999999997C22.441666666666666 16.5875 22.666666666666664 16.941666666666663 22.666666666666664 17.333333333333336S22.441666666666666 18.079166666666666 22.0875 18.241666666666667L12.979166666666666 22.450000000000003C12.358333333333334 22.737500000000004 11.641666666666666 22.737500000000004 11.020833333333332 22.450000000000003L1.9124999999999999 18.241666666666667C1.5583333333333331 18.075000000000003 1.3333333333333333 17.72083333333333 1.3333333333333333 17.333333333333336S1.5583333333333331 16.5875 1.9124999999999999 16.424999999999997L4.129166666666666 15.399999999999999L10.462499999999999 18.324999999999996C11.4375 18.775 12.5625 18.775 13.537499999999998 18.324999999999996z"/></svg>